# xmcd CD database file
#
# Track frame offsets:
#	150
#	26055
#	52195
#	82513
#	105878
#	124869
#	158140
#	186486
#	218317
#	244133
#	267624
#
# Disc length: 3876 seconds
#
# Revision: 0
# Processed by: cddbd v1.5.1PL0 Copyright (c) Steve Scherf et al.
# Submitted via: CDex 1.51
#
DISCID=8e0f220b
DTITLE=吉本有里 - 愛の花
DYEAR=1900
DGENRE=JPop
TTITLE0=花びら流れて
TTITLE1=生きているそれだけで素晴らしい
TTITLE2=ほんとの気持ち
TTITLE3=蝶
TTITLE4=Instrumental(Yamamuro Trans)
TTITLE5=星まつり
TTITLE6=恋
TTITLE7=わたしは船の中
TTITLE8=瑠璃色の涙
TTITLE9=天使のうた
TTITLE10=愛の花
EXTD=
EXTT0=
EXTT1=
EXTT2=
EXTT3=
EXTT4=
EXTT5=
EXTT6=
EXTT7=
EXTT8=
EXTT9=
EXTT10=
PLAYORDER=
